<svg xmlns="http://www.w3.org/2000/svg" viewBox="0 0 1024 1536"><path fill="white" d="M582 30C625 54 648 109 677 176C708 226 695 286 718 359C740 432 810 477 847 546C883 627 878 695 845 752C817 800 774 852 746 906C709 1002 727 1079 685 1150C674 1180 622 1240 612 1311C587 1402 490 1465 386 1458C285 1452 148 1334 160 1232C165 1154 201 1083 240 1045C202 977 171 914 203 870C218 833 263 803 299 775C234 717 202 675 201 618C195 526 256 460 267 414C285 370 239 308 250 267C273 185 362 132 460 102C504 80 554 37 582 30Z"/></svg>
